<?xml version="1.0" encoding="UTF-8"?>
<svg version="1.1" xmlns="http://www.w3.org/2000/svg" width="96" height="96">
<path d="M0 0 C31.68 0 63.36 0 96 0 C96 21.78 96 43.56 96 66 C64.32 66 32.64 66 0 66 C0 44.22 0 22.44 0 0 Z " fill="#179A54" transform="translate(0,14)"/>
<path d="M0 0 C3.46247867 1.43951816 6.4749363 3.40210983 9.55297852 5.51293945 C10.21178513 5.9554454 10.87059174 6.39795135 11.54936218 6.85386658 C13.64300451 8.2626417 15.72885715 9.68248838 17.81469727 11.1027832 C19.23672317 12.06250905 20.65924407 13.0215019 22.08227539 13.97973633 C25.56137417 16.32479927 29.03353216 18.67981781 32.50219727 21.0402832 C31.148078 25.10264101 28.43264045 26.45852732 25.01782227 28.7434082 C24.36521423 29.18545593 23.7126062 29.62750366 23.04022217 30.08294678 C21.65766331 31.01500568 20.27217898 31.94273753 18.8840332 32.86645508 C16.76328538 34.28287759 14.66013759 35.7230527 12.55688477 37.1652832 C11.21153841 38.06782894 9.8652148 38.96892002 8.51782227 39.8684082 C7.89055237 40.30163391 7.26328247 40.73485962 6.61700439 41.18121338 C4.04060089 42.86772723 2.12543575 44.03023195 -0.99560547 44.08056641 C-4.45808414 42.64104825 -7.47054177 40.67845658 -10.54858398 38.56762695 C-11.20739059 38.125121 -11.8661972 37.68261505 -12.54496765 37.22669983 C-14.63860998 35.81792471 -16.72446262 34.39807802 -18.81030273 32.9777832 C-20.23232864 32.01805736 -21.65484954 31.05906451 -23.07788086 30.10083008 C-26.55697964 27.75576714 -30.02913762 25.4007486 -33.49780273 23.0402832 C-32.14368347 18.9779254 -29.42824592 17.62203908 -26.01342773 15.3371582 C-25.3608197 14.89511047 -24.70821167 14.45306274 -24.03582764 13.99761963 C-22.65326878 13.06556072 -21.26778445 12.13782888 -19.87963867 11.21411133 C-17.75889084 9.79768882 -15.65574306 8.35751371 -13.55249023 6.9152832 C-12.20714388 6.01273746 -10.86082027 5.11164639 -9.51342773 4.2121582 C-8.57252289 3.56231964 -8.57252289 3.56231964 -7.61260986 2.89935303 C-5.03620636 1.21283917 -3.12104122 0.05033445 0 0 Z " fill="#F9C706" transform="translate(48.497802734375,24.959716796875)"/>
<path d="M0 0 C8.13738953 -0.45916305 15.94484775 -0.63665178 23 4 C24.26953125 6.140625 24.26953125 6.140625 25 8 C22.34649227 11.73456644 20.49151015 13.85100903 16 15 C11.79382186 15.4588558 9.55577287 15.27788643 5.75 13.375 C2.69509284 10.73667109 1.38652045 8.77441679 0 5 C-0.04352651 3.3339018 -0.05073789 1.66589419 0 0 Z " fill="#1975BE" transform="translate(35,45)"/>
<path d="M0 0 C3.36371266 2.2424751 4.97949475 4.28230972 6.8125 7.875 C6.41015625 10.06640625 6.41015625 10.06640625 5.8125 11.875 C5.08160156 11.47667969 5.08160156 11.47667969 4.3359375 11.0703125 C-2.60477679 7.61257484 -9.53234697 6.70258411 -17.1875 5.875 C-13.76171456 -1.62762512 -7.50482908 -2.6487632 0 0 Z " fill="#2786CE" transform="translate(54.1875,35.125)"/>
<path d="M0 0 C9.26874902 -0.64540612 17.17485061 0.78323374 25 6 C25 7.32 25 8.64 25 10 C24.34 9.731875 23.68 9.46375 23 9.1875 C22.01 8.795625 21.02 8.40375 20 8 C18.845 7.484375 17.69 6.96875 16.5 6.4375 C10.88701433 4.30024777 4.94270079 4.26271086 -1 4 C-0.67 2.68 -0.34 1.36 0 0 Z " fill="#DEEAF1" transform="translate(36,41)"/>
</svg>
