<?xml version="1.0" encoding="UTF-8"?>
<svg version="1.1" xmlns="http://www.w3.org/2000/svg" width="96" height="96">
<path d="M0 0 C0.75973618 -0.00570007 1.51947235 -0.01140015 2.30223083 -0.01727295 C3.90663276 -0.02668203 5.51105366 -0.03324057 7.11547852 -0.03710938 C9.52721525 -0.04674957 11.93807448 -0.07778392 14.34960938 -0.109375 C23.60468506 -0.17184244 32.10605703 0.31454924 40.99609375 3.203125 C42.81741901 5.02445026 42.15233243 7.87841999 42.1730957 10.32763672 C42.19234856 12.29505325 42.19234856 12.29505325 42.21199036 14.30221558 C42.22015676 15.74574407 42.22760068 17.1892768 42.234375 18.6328125 C42.23845053 19.35630009 42.24252605 20.07978767 42.24672508 20.82519913 C42.26760217 24.65413378 42.28189696 28.48303241 42.29125977 32.31201172 C42.30233037 36.27244388 42.33673221 40.23231508 42.37643147 44.19254875 C42.40254377 47.23284977 42.41094672 50.27301604 42.41454124 53.31341934 C42.41942092 54.77350785 42.43107415 56.23358979 42.44957924 57.69356918 C42.47385253 59.73551732 42.47059757 61.77773684 42.46606445 63.81982422 C42.47193069 64.98262909 42.47779694 66.14543396 42.48384094 67.34347534 C41.99609375 70.203125 41.99609375 70.203125 40.13591003 72.0435791 C31.09671299 76.94183319 19.98316791 76.66984303 9.99609375 76.578125 C8.7328125 76.58972656 7.46953125 76.60132812 6.16796875 76.61328125 C-15.59980742 76.54609676 -15.59980742 76.54609676 -22.00390625 70.203125 C-22.48492432 67.33674622 -22.48492432 67.33674622 -22.45800781 63.80395508 C-22.45859192 63.15978134 -22.45917603 62.5156076 -22.45977783 61.85191345 C-22.45699339 59.72494411 -22.42588839 57.59938038 -22.39453125 55.47265625 C-22.38707004 53.99721543 -22.38137654 52.5217647 -22.37738037 51.04631042 C-22.36211426 47.16460771 -22.32282495 43.28350455 -22.27856445 39.40203857 C-22.23763227 35.44063427 -22.2193738 31.47913299 -22.19921875 27.51757812 C-22.15633085 19.74582054 -22.08806873 11.9745568 -22.00390625 4.203125 C-14.5292931 1.23905427 -8.06929083 0.04791558 0 0 Z " fill="#1D5BB8" transform="translate(38.00390625,9.796875)"/>
<path d="M0 0 C0.75973618 -0.00570007 1.51947235 -0.01140015 2.30223083 -0.01727295 C3.90663276 -0.02668203 5.51105366 -0.03324057 7.11547852 -0.03710938 C9.52721525 -0.04674957 11.93807448 -0.07778392 14.34960938 -0.109375 C23.60468506 -0.17184244 32.10605703 0.31454924 40.99609375 3.203125 C43.17316551 5.38019676 42.32016678 10.07343378 42.37109375 13.078125 C42.42716797 14.32142578 42.42716797 14.32142578 42.484375 15.58984375 C42.49597656 16.38777344 42.50757812 17.18570312 42.51953125 18.0078125 C42.54926025 19.10585205 42.54926025 19.10585205 42.57958984 20.22607422 C41.99609375 22.203125 41.99609375 22.203125 39.80395508 23.86132812 C30.68529542 28.2188756 21.13477686 28.6948044 11.18359375 28.578125 C9.95833984 28.57014893 8.73308594 28.56217285 7.47070312 28.55395508 C-2.05396562 28.40426367 -11.51889757 28.03763211 -20.36328125 24.171875 C-23.10918319 20.87679267 -22.42002822 17.14631156 -22.25390625 13.015625 C-22.23585938 12.17064453 -22.2178125 11.32566406 -22.19921875 10.45507812 C-22.15211211 8.37060927 -22.08036858 6.28672356 -22.00390625 4.203125 C-14.54980016 1.24718638 -8.05643406 0.04783924 0 0 Z " fill="#2C7AD3" transform="translate(38.00390625,9.796875)"/>
<path d="M0 0 C1.11375 0.61875 2.2275 1.2375 3.375 1.875 C11.79551948 6.04646402 20.50029645 6.33524731 29.75 6.25 C30.8004248 6.24395752 31.85084961 6.23791504 32.93310547 6.23168945 C43.13237702 6.10201772 52.84932988 5.93825116 62 1 C62.66 0.67 63.32 0.34 64 0 C64.11613204 3.10385211 64.18722029 6.20714662 64.25 9.3125 C64.28351563 10.19357422 64.31703125 11.07464844 64.3515625 11.98242188 C64.37089844 13.25375977 64.37089844 13.25375977 64.390625 14.55078125 C64.4220459 15.72120972 64.4220459 15.72120972 64.45410156 16.9152832 C64 19 64 19 62.33886719 20.67407227 C53.32825597 25.78227994 42.04336129 25.46723495 32 25.375 C30.73671875 25.38660156 29.4734375 25.39820312 28.171875 25.41015625 C19.31958186 25.38283436 9.551953 25.14745895 1.66113281 20.67407227 C0 19 0 19 -0.45410156 16.9152832 C-0.4331543 16.13499756 -0.41220703 15.35471191 -0.390625 14.55078125 C-0.37773437 13.70322266 -0.36484375 12.85566406 -0.3515625 11.98242188 C-0.31804688 11.10134766 -0.28453125 10.22027344 -0.25 9.3125 C-0.23195313 8.41982422 -0.21390625 7.52714844 -0.1953125 6.60742188 C-0.14817759 4.40386496 -0.08240657 2.20247399 0 0 Z " fill="#103F8C" transform="translate(16,61)"/>
<path d="M0 0 C2.34987404 0.01609503 4.69802902 0.0000573 7.04785156 -0.01904297 C16.25228573 -0.0299212 24.46133027 0.80504394 33.35253906 3.39111328 C33.84753906 5.37111328 33.84753906 5.37111328 34.35253906 7.39111328 C23.82016532 12.65730015 12.35322417 12.71364764 0.79003906 12.64111328 C-1.06524414 12.65271484 -1.06524414 12.65271484 -2.95800781 12.66455078 C-22.75130169 12.62268236 -22.75130169 12.62268236 -29.64746094 7.39111328 C-29.31746094 6.07111328 -28.98746094 4.75111328 -28.64746094 3.39111328 C-18.97052361 0.57650938 -10.01093619 -0.08137276 0 0 Z " fill="#41A2EE" transform="translate(45.6474609375,9.60888671875)"/>
<path d="M0 0 C1.90625 0.484375 1.90625 0.484375 4.40625 2.609375 C6.44889669 6.52444783 6.48648394 9.4535562 5.28125 13.671875 C5.1575 14.27 5.03375 14.868125 4.90625 15.484375 C5.89625 16.969375 5.89625 16.969375 6.90625 18.484375 C5.24013095 18.527096 3.57242115 18.52501332 1.90625 18.484375 C1.57625 18.154375 1.24625 17.824375 0.90625 17.484375 C-0.186875 17.401875 -1.28 17.319375 -2.40625 17.234375 C-6.09375 16.484375 -6.09375 16.484375 -8.53125 14.296875 C-10.39590998 10.94048704 -10.7241261 9.2666316 -10.09375 5.484375 C-7.60378974 0.71195116 -5.15439468 -0.34619069 0 0 Z " fill="#EFF3FA" transform="translate(51.09375,43.515625)"/>
<path d="M0 0 C-0.33 1.32 -0.66 2.64 -1 4 C-2.65 3.67 -4.3 3.34 -6 3 C-6 3.99 -6 4.98 -6 6 C-5.195625 6.309375 -4.39125 6.61875 -3.5625 6.9375 C-1 8 -1 8 0 9 C0.1875 11.4375 0.1875 11.4375 0 14 C-2 16 -2 16 -3.9453125 16.1953125 C-5.96354167 16.13020833 -7.98177083 16.06510417 -10 16 C-9.67 14.68 -9.34 13.36 -9 12 C-7.35 12 -5.7 12 -4 12 C-4.804375 11.360625 -5.60875 10.72125 -6.4375 10.0625 C-9 8 -9 8 -10 7 C-10.25 4.5625 -10.25 4.5625 -10 2 C-6.3558226 -0.4294516 -4.28758728 -0.16179575 0 0 Z " fill="#EAF0F8" transform="translate(39,44)"/>
<path d="M0 0 C4.55555556 0.55555556 4.55555556 0.55555556 6 2 C6.1875 4.9375 6.1875 4.9375 6 8 C5.34 8.66 4.68 9.32 4 10 C-0.55555556 9.44444444 -0.55555556 9.44444444 -2 8 C-2.1875 5.0625 -2.1875 5.0625 -2 2 C-1.34 1.34 -0.68 0.68 0 0 Z " fill="#2360BA" transform="translate(47,47)"/>
<path d="M0 0 C0.99 0 1.98 0 3 0 C3 4.29 3 8.58 3 13 C4.98 13 6.96 13 9 13 C9 13.99 9 14.98 9 16 C6.03 16 3.06 16 0 16 C0 10.72 0 5.44 0 0 Z " fill="#F5F8FC" transform="translate(60,44)"/>
</svg>
