<?xml version="1.0" encoding="UTF-8"?>
<svg version="1.1" xmlns="http://www.w3.org/2000/svg" width="96" height="96">
<path d="M0 0 C29.04 0 58.08 0 88 0 C88 18.48 88 36.96 88 56 C58.96 56 29.92 56 0 56 C0 37.52 0 19.04 0 0 Z " fill="#E53935" transform="translate(4,20)"/>
<path d="M0 0 C13.2 0 26.4 0 40 0 C40 7.92 40 15.84 40 24 C26.8 24 13.6 24 0 24 C0 16.08 0 8.16 0 0 Z " fill="#FCFBFC" transform="translate(52,52)"/>
<path d="M0 0 C13.2 0 26.4 0 40 0 C40 7.92 40 15.84 40 24 C26.8 24 13.6 24 0 24 C0 16.08 0 8.16 0 0 Z " fill="#FDFCFC" transform="translate(4,52)"/>
<path d="M0 0 C13.2 0 26.4 0 40 0 C40 7.92 40 15.84 40 24 C26.8 24 13.6 24 0 24 C0 16.08 0 8.16 0 0 Z " fill="#FDFBFC" transform="translate(52,20)"/>
<path d="M0 0 C13.2 0 26.4 0 40 0 C40 7.92 40 15.84 40 24 C26.8 24 13.6 24 0 24 C0 16.08 0 8.16 0 0 Z " fill="#FDFBFC" transform="translate(4,20)"/>
<path d="M0 0 C7.35973323 3.89632936 14.5372529 8.04562103 21.6875 12.3125 C22.59725586 12.85229492 23.50701172 13.39208984 24.44433594 13.94824219 C25.29157227 14.45645508 26.13880859 14.96466797 27.01171875 15.48828125 C27.77959717 15.94759033 28.54747559 16.40689941 29.33862305 16.88012695 C29.88687744 17.24968506 30.43513184 17.61924316 31 18 C31 18.33 31 18.66 31 19 C20.77 19 10.54 19 0 19 C0 12.73 0 6.46 0 0 Z " fill="#4153B5" transform="translate(56,57)"/>
<path d="M0 0 C0 5.94 0 11.88 0 18 C-9.24 18 -18.48 18 -28 18 C-25.10859179 15.10859179 -23.43848483 13.46601948 -20.1015625 11.5625 C-19.37453125 11.14226562 -18.6475 10.72203125 -17.8984375 10.2890625 C-17.14820313 9.86367187 -16.39796875 9.43828125 -15.625 9 C-14.1370487 8.1475279 -12.65005169 7.29338777 -11.1640625 6.4375 C-10.45668945 6.03015625 -9.74931641 5.6228125 -9.02050781 5.203125 C-7.14418578 4.08585639 -5.33037345 2.91298015 -3.5234375 1.6875 C-1 0 -1 0 0 0 Z " fill="#4153B6" transform="translate(40,58)"/>
<path d="M0 0 C9.24 0 18.48 0 28 0 C22.95628022 4.03497583 17.79550958 7.36726189 12.3125 10.75 C11.35021484 11.35199219 10.38792969 11.95398438 9.39648438 12.57421875 C8.47802734 13.14269531 7.55957031 13.71117187 6.61328125 14.296875 C5.77579346 14.81604492 4.93830566 15.33521484 4.07543945 15.87011719 C2 17 2 17 0 17 C0 11.39 0 5.78 0 0 Z " fill="#4153B6" transform="translate(56,20)"/>
<path d="M0 0 C8.58 0 17.16 0 26 0 C26 5.28 26 10.56 26 16 C19.52539602 12.96502939 13.43670666 9.52779986 7.375 5.75 C6.65183594 5.30156738 5.92867187 4.85313477 5.18359375 4.39111328 C3.43645475 3.29076782 1.71536452 2.14925166 0 1 C0 0.67 0 0.34 0 0 Z " fill="#4254B6" transform="translate(14,20)"/>
<path d="M0 0 C-5.10826119 4.22760753 -10.63715902 7.66270622 -16.26586914 11.13769531 C-18.06630283 12.25235435 -19.85826256 13.37986204 -21.65039062 14.5078125 C-22.7989812 15.21955423 -23.94805347 15.93051933 -25.09765625 16.640625 C-26.13414307 17.28547852 -27.17062988 17.93033203 -28.23852539 18.59472656 C-31 20 -31 20 -35 20 C-34.84399414 18.24316406 -34.84399414 18.24316406 -34 16 C-30.64657933 13.28304278 -26.93864147 11.10410343 -23.25561523 8.86230469 C-21.45470703 7.76052709 -19.67588632 6.62828049 -17.89648438 5.4921875 C-11.85166568 1.72199335 -7.25841815 -1.11253875 0 0 Z " fill="#E64542" transform="translate(39,56)"/>
<path d="M0 0 C-0.20410156 1.80444336 -0.20410156 1.80444336 -1 4 C-3.05371094 5.59985352 -3.05371094 5.59985352 -5.734375 7.12890625 C-6.70117188 7.68900391 -7.66796875 8.24910156 -8.6640625 8.82617188 C-9.68242188 9.39916016 -10.70078125 9.97214844 -11.75 10.5625 C-12.75289062 11.13935547 -13.75578125 11.71621094 -14.7890625 12.31054688 C-16.66557981 13.38941989 -18.54515649 14.46300135 -20.42871094 15.52954102 C-22.17794667 16.52988728 -23.89876444 17.58124956 -25.59082031 18.67553711 C-28.81051011 20.44558344 -31.38848091 20.2124423 -35 20 C-32.34310636 17.00345498 -29.10863078 15.05294825 -25.72265625 12.98828125 C-25.11489853 12.61519333 -24.50714081 12.24210541 -23.88096619 11.85771179 C-22.59887158 11.07303439 -21.31535525 10.29067583 -20.03051758 9.51049805 C-18.06709649 8.31529804 -16.11264042 7.10630391 -14.15820312 5.89648438 C-12.9093789 5.13455594 -11.66004653 4.37345962 -10.41015625 3.61328125 C-9.82774673 3.25083817 -9.24533722 2.88839508 -8.64527893 2.51496887 C-5.37308968 0.54979995 -3.94637758 0 0 0 Z " fill="#E64340" transform="translate(92,20)"/>
<path d="M0 0 C3.43703303 1.29649144 6.53702622 2.7939597 9.6875 4.6796875 C10.55117187 5.19660156 11.41484375 5.71351562 12.3046875 6.24609375 C13.19414062 6.78363281 14.08359375 7.32117188 15 7.875 C16.33417969 8.66970703 16.33417969 8.66970703 17.6953125 9.48046875 C22.02861364 12.08691705 26.15786736 14.6861606 30 18 C22.14636908 18.91579442 17.55924959 15.98608758 11.0625 11.8125 C10.10537109 11.23435547 9.14824219 10.65621094 8.16210938 10.06054688 C1.1962561 5.68525933 1.1962561 5.68525933 0.22436523 2.29174805 C0.11330444 1.15733276 0.11330444 1.15733276 0 0 Z " fill="#E64441" transform="translate(4,22)"/>
<path d="M0 0 C4.26257039 1.70502816 7.94823905 3.65433738 11.8125 6.0625 C12.40998047 6.42666016 13.00746094 6.79082031 13.62304688 7.16601562 C15.10140371 8.08006254 16.55348068 9.03635975 18 10 C18 10.33 18 10.66 18 11 C12.06 11 6.12 11 0 11 C0 7.37 0 3.74 0 0 Z " fill="#4254B6" transform="translate(4,29)"/>
<path d="M0 0 C7.23949927 -0.69104311 11.0798231 1.21771314 17 5.25 C18.16208984 5.98669922 18.16208984 5.98669922 19.34765625 6.73828125 C23.54507707 9.51435322 23.54507707 9.51435322 25 11 C25 12.32 25 13.64 25 15 C21.49535013 13.68190878 18.34784495 12.13705736 15.13671875 10.21484375 C14.25048828 9.68439453 13.36425781 9.15394531 12.45117188 8.60742188 C11.53916016 8.05634766 10.62714844 7.50527344 9.6875 6.9375 C8.75615234 6.38255859 7.82480469 5.82761719 6.86523438 5.25585938 C5.98544922 4.72669922 5.10566406 4.19753906 4.19921875 3.65234375 C3.39315186 3.16757568 2.58708496 2.68280762 1.7565918 2.18334961 C1.1769165 1.79284424 0.59724121 1.40233887 0 1 C0 0.67 0 0.34 0 0 Z " fill="#E64340" transform="translate(67,56)"/>
<path d="M0 0 C0 3.3 0 6.6 0 10 C-5.28 10 -10.56 10 -16 10 C-12.54963777 7.23971021 -9.49370535 4.96932233 -5.75 2.75 C-4.87859375 2.22921875 -4.0071875 1.7084375 -3.109375 1.171875 C-1 0 -1 0 0 0 Z " fill="#4355B6" transform="translate(92,30)"/>
<path d="M0 0 C5.28 0 10.56 0 16 0 C12.30260819 2.95791344 9.28294314 5.07892171 5.1875 7.25 C4.21167969 7.77078125 3.23585938 8.2915625 2.23046875 8.828125 C1.49441406 9.21484375 0.75835937 9.6015625 0 10 C0 6.7 0 3.4 0 0 Z " fill="#4556B7" transform="translate(4,56)"/>
<path d="M0 0 C-9.24 5.61 -18.48 11.22 -28 17 C-28.66 16.34 -29.32 15.68 -30 15 C-26.38038218 12.68695923 -22.7508805 10.3906053 -19.11132812 8.10913086 C-17.87475651 7.33075898 -16.64099606 6.54790234 -15.41015625 5.76049805 C-13.64002472 4.62918414 -11.86039786 3.51440324 -10.078125 2.40234375 C-8.47565918 1.38901978 -8.47565918 1.38901978 -6.84082031 0.35522461 C-4 -1 -4 -1 0 0 Z " fill="#F1E6EC" transform="translate(88,21)"/>
<path d="M0 0 C0.99 0.33 1.98 0.66 3 1 C-1.63985307 4.99220691 -6.77035096 8.04592098 -12 11.1875 C-12.88945312 11.73341797 -13.77890625 12.27933594 -14.6953125 12.84179688 C-15.55898438 13.36193359 -16.42265625 13.88207031 -17.3125 14.41796875 C-18.09238281 14.89000732 -18.87226563 15.3620459 -19.67578125 15.84838867 C-22.1260842 17.0624726 -24.30702579 17.58681911 -27 18 C-24.54417062 15.2857702 -21.84182221 13.55671799 -18.7109375 11.6796875 C-17.68742187 11.06222656 -16.66390625 10.44476563 -15.609375 9.80859375 C-14.54203125 9.17050781 -13.4746875 8.53242187 -12.375 7.875 C-10.25710508 6.60273938 -8.13987987 5.32936302 -6.0234375 4.0546875 C-4.61457275 3.21139893 -4.61457275 3.21139893 -3.17724609 2.35107422 C-1.10170434 1.17770025 -1.10170434 1.17770025 0 0 Z " fill="#F0E8EF" transform="translate(35,58)"/>
<path d="M0 0 C4.62 0 9.24 0 14 0 C14 2.64 14 5.28 14 8 C9.02790438 6.23570801 4.56561939 3.6060834 0 1 C0 0.67 0 0.34 0 0 Z " fill="#4657B7" transform="translate(78,56)"/>
<path d="M0 0 C2.22955653 1.27015331 4.45865426 2.54110048 6.6875 3.8125 C7.31333984 4.16892578 7.93917969 4.52535156 8.58398438 4.89257812 C12.08115525 6.8883458 15.55626286 8.91268705 19 11 C18.67 11.99 18.34 12.98 18 14 C14.98930945 12.24687774 11.99355512 10.46969911 9 8.6875 C8.14148437 8.18798828 7.28296875 7.68847656 6.3984375 7.17382812 C5.58632812 6.68720703 4.77421875 6.20058594 3.9375 5.69921875 C3.18339844 5.25408936 2.42929688 4.80895996 1.65234375 4.3503418 C1.10707031 3.904729 0.56179687 3.45911621 0 3 C0 2.01 0 1.02 0 0 Z " fill="#F0E6EC" transform="translate(4,26)"/>
<path d="M0 0 C3.29680965 0.65784963 5.84117922 1.89420573 8.75 3.5625 C9.94882813 4.24505859 9.94882813 4.24505859 11.171875 4.94140625 C11.77515625 5.29074219 12.3784375 5.64007813 13 6 C12.67 6.99 12.34 7.98 12 9 C10.18381144 7.88096454 8.37214474 6.75458716 6.5625 5.625 C5.55316406 4.99851562 4.54382813 4.37203125 3.50390625 3.7265625 C1 2 1 2 0 0 Z " fill="#F2E7EC" transform="translate(79,58)"/>
</svg>
